<svg data-v-0dd9719b="" version="1.0" xmlns="http://www.w3.org/2000/svg" xmlns:xlink="http://www.w3.org/1999/xlink" width="100%" height="100%" viewBox="0 0 340.000000 250.000000" preserveAspectRatio="xMidYMid meet" color-interpolation-filters="sRGB" style="margin: auto;"> <rect data-v-0dd9719b="" x="0" y="0" width="100%" height="100%" fill="#fff" fill-opacity="1" class="background"></rect> <rect data-v-0dd9719b="" x="0" y="0" width="100%" height="100%" fill="url(#watermark)" fill-opacity="1" class="watermarklayer"></rect> <g data-v-0dd9719b="" fill="#333" class="icon-text-wrapper icon-svg-group iconsvg" transform="translate(48.91999816894531,92.43165969848633)"><g class="iconsvg-imagesvg" transform="translate(0,0)"><g><rect fill="#333" fill-opacity="0" stroke-width="2" x="0" y="0" width="60" height="65.13667846364288" class="image-rect"></rect> <svg x="0" y="0" width="60" height="65.13667846364288" filtersec="colorsb1162437618" class="image-svg-svg primary" style="overflow: visible;"><svg xmlns="http://www.w3.org/2000/svg" viewBox="-0.016003012657165527 -0.0024700164794921875 57.17442321777344 62.06932067871094"><title>资源 35</title><path d="M3.44 15.52c2.47-5.73 6.87-9.58 12.25-12.38 16.81-8.73 37.78 1.6 41.17 20.24a4 4 0 0 1 0 2.7c-2.65-2.42-5.16-4.84-7.79-7.1C43.94 14.6 38.61 10.49 32.31 8c-4.09-1.64-8.3-3.16-13-1.7 6.77 0 12.44 2.41 17.9 6 6.2 4.12 11.31 9.36 16.36 14.7.44.47 1.37.93 1 1.67s-1.3.38-2 .37a28.54 28.54 0 0 1-22.41-10.1c-.46-.53-.78-1.2-1.5-1.46a6.54 6.54 0 0 0-1.14-1.71 19.51 19.51 0 0 0-11.45-4.69c-4.81-.19-8.88 1.64-12.63 4.44zM53.65 46.66C52 50.93 48.9 54 45.36 56.57 28.54 69 4 59.21.28 38.63A4.1 4.1 0 0 1 .25 36c10.48 9.2 20.14 19.76 35.43 20.29-2-1-4.28-.74-6.41-1.59a50.28 50.28 0 0 1-8.61-4.33C14 46.12 8.56 40.53 3.29 34.74c-.34-.38-1-.75-.66-1.4.27-.49.9-.29 1.37-.29a29.41 29.41 0 0 1 15.5 4 35.35 35.35 0 0 1 8.68 7.45c.09.26.1.6.28.76 3.33 3 7 5.18 11.64 5.61 5.14.52 9.53-1.22 13.55-4.21z" fill="#35c4fd"></path><path d="M53.65 46.66c-4 3-8.41 4.73-13.55 4.24-4.59-.43-8.31-2.6-11.64-5.61-.18-.16-.19-.5-.28-.76.75-.34 1.09-1.08 1.61-1.64 6.92-7.59 15.46-10.75 25.67-9.57 1.52.17 1.82.79 1.66 2.18-.46 3.94-1.12 7.82-3.47 11.16zM3.44 15.52c3.75-2.8 7.82-4.63 12.63-4.44a19.51 19.51 0 0 1 11.45 4.69 6.54 6.54 0 0 1 1.14 1.71c-6.86 9-16 12.46-27.09 11.3-1.23-.13-1.68-.6-1.57-1.88.43-4.03 1.09-7.96 3.44-11.38z" fill="#087acb"></path></svg></svg> <!----></g></g> <g transform="translate(67,8.109275817871094)"><g data-gra="path-name" fill-rule="" class="tp-name iconsvg-namesvg" transform="translate(0,0)"><g transform="scale(1)"><g><path d="M4.58 5.14L9.41-12.45 1.91-12.45 1.91-16.16 43.09-16.16 41.74-12.45 16.05-12.45 12.22 1.43 32.63 1.43 30.04-7.91 36.64-7.91 40.27 5.14 4.58 5.14ZM5.47-23.96L5.47-27.68 39.52-27.68 38.32-23.96 5.47-23.96ZM47.48-22.2L47.48-25.91 64.5-25.91 64.5-28.35 70.5-28.35 70.5-25.91 87.49-25.91 86.14-22.2 70.5-22.2 70.5-19.69 85.76-19.69 85.76 0.94 84.45 5.85 78.41 5.85 79.76 0.94 79.76-16.01 55.24-16.01 55.24 5.85 49.24 5.85 49.24-19.69 64.5-19.69 64.5-22.2 47.48-22.2ZM56.44 0.22L56.44-3.49 64.46-3.49 64.46-6.64 56.74-6.64 56.74-10.35 59.81-10.35 58.39-14.25 64.2-14.25 65.66-10.35 69.34-10.35 70.8-14.25 76.61-14.25 75.19-10.35 78.3-10.35 76.95-6.64 70.54-6.64 70.54-3.49 78.64-3.49 77.29 0.22 70.54 0.22 70.54 5.33 64.46 5.33 64.46 0.22 56.44 0.22ZM122.96 5.85L122.96-1.46 110.03 0.56 110.03-3.15 122.96-5.17 122.96-28.35 128.93-28.35 128.93-6.08 133.24-6.75 133.24-3.07 128.93-2.4 128.93 5.85 122.96 5.85ZM91.72 5.85L92.7-13.09 97.2-13.09 96.22 5.85 91.72 5.85ZM91.8-14.96L91.8-18.68 97.69-18.68 97.69-23.36 92.25-23.36 92.25-27.07 103.31-27.07 103.76-28.35 109.95-28.35 108.15-23.36 103.54-23.36 103.54-18.68 110.06-18.68 108.71-14.96 103.54-14.96 103.54 5.85 97.69 5.85 97.69-14.96 91.8-14.96ZM104.03-13.09L108.53-13.09 109.5 5.85 105 5.85 104.03-13.09ZM110.85-11.74L110.85-15.97 121.35-13.2 121.35-8.96 110.85-11.74ZM110.85-21.6L110.85-25.8 121.35-23.02 121.35-18.82 110.85-21.6ZM145.95 5.85L145.95-14.17 136.65-14.17 136.65-17.89 145.95-17.89 145.95-22.5 137.78-22.5 137.78-26.21 154.05-26.21 154.69-28.16 160.5-28.16 158.63-22.5 152.03-22.5 152.03-17.89 161.21-17.89 159.86-14.17 152.03-14.17 152.03 5.85 145.95 5.85ZM136.65 5.4L139.31-11.55 144.9-11.55 142.24 5.4 136.65 5.4ZM152.96-11.55L158.55-11.55 161.21 5.4 155.63 5.4 152.96-11.55ZM163.13 2.4L163.13-25.91 168.45-25.91 168.45 2.4 163.13 2.4ZM169.13 5.85L171.07-0.04 171.07-28.35 177.07-28.35 177.07-0.04 175.16 5.85 169.13 5.85Z" transform="translate(-1.9100000858306885, 28.350000381469727)"></path></g> <!----> <!----> <!----> <!----> <!----> <!----> <!----></g></g> <g data-gra="path-slogan" fill-rule="" class="tp-slogan iconsvg-slogansvg" fill="#333" transform="translate(5,40.20000076293945)"><rect x="0" height="1" y="3.8600001335144043" width="40.37000274658203"></rect> <rect height="1" y="3.8600001335144043" width="40.37000274658203" x="124.79000091552734"></rect> <g transform="translate(43.37000274658203,0)"><g transform="scale(1)"><path d="M7.83-8.58L4.59-3.47L4.59 0L3.42 0L3.42-3.47L0.19-8.58L1.55-8.58L3.98-4.45L6.47-8.58L7.83-8.58ZM14.53-3.19L14.53-8.58L15.70-8.58L15.70-3.05Q15.56 0.05 12.19 0.14L12.19 0.14Q9.05 0.05 8.91-2.86L8.91-2.86L8.91-8.58L10.08-8.58L10.08-3.19Q10.13-0.84 12.23-0.80L12.23-0.80Q14.53-0.84 14.53-3.19L14.53-3.19ZM18.89-8.58L23.20-1.64L23.20-8.58L24.33-8.58L24.33 0L23.02 0L18.66-6.94L18.61-6.94L18.61 0L17.48 0L17.48-8.58L18.89-8.58ZM27.52-8.58L31.83-1.64L31.83-8.58L32.95-8.58L32.95 0L31.64 0L27.28-6.94L27.23-6.94L27.23 0L26.11 0L26.11-8.58L27.52-8.58ZM40.41 0L39.56-2.48L36.09-2.48L35.20 0L34.03 0L37.27-8.58L38.58-8.58L41.67 0L40.41 0ZM37.83-7.31L36.47-3.52L39.14-3.52L37.88-7.31L37.83-7.31ZM44.11-8.58L48.42-1.64L48.42-8.58L49.55-8.58L49.55 0L48.23 0L43.88-6.94L43.83-6.94L43.83 0L42.70 0L42.70-8.58L44.11-8.58ZM57.19-4.31L55.83-3.05L55.83 0L54.66 0L54.66-8.58L55.83-8.58L55.83-4.41L60-8.58L61.64-8.58L58.03-5.11L61.73 0L60.19 0L57.19-4.31ZM63.94-1.03L69.09-1.03L69.09 0L62.77 0L62.77-8.58L69-8.58L69-7.59L63.94-7.59L63.94-4.92L68.63-4.92L68.63-3.89L63.94-3.89L63.94-1.03ZM70.59-8.58L71.77-8.58L71.77-1.03L76.13-1.03L76.13 0L70.59 0L70.59-8.58ZM77.44-8.58L78.61-8.58L78.61 0L77.44 0L77.44-8.58Z" transform="translate(-0.1875, 8.578125)"></path></g></g></g></g></g><defs v-gra="od"></defs></svg>